<?xml version="1.0" encoding="utf-8"?>
<!-- Generator: Adobe Illustrator 16.0.0, SVG Export Plug-In . SVG Version: 6.00 Build 0)  -->
<!DOCTYPE svg PUBLIC "-//W3C//DTD SVG 1.1//EN" "http://www.w3.org/Graphics/SVG/1.1/DTD/svg11.dtd">
<svg version="1.1" id="Layer_1" xmlns="http://www.w3.org/2000/svg" xmlns:xlink="http://www.w3.org/1999/xlink" x="0px" y="0px"
	 width="140px" height="140px" viewBox="0 0 140 140" enable-background="new 0 0 140 140" xml:space="preserve">
<g>
	<defs>
		<rect id="SVGID_1_" width="140" height="140"/>
	</defs>
	<clipPath id="SVGID_2_">
		<use xlink:href="#SVGID_1_"  overflow="visible"/>
	</clipPath>
	<path clip-path="url(#SVGID_2_)" fill="#ffffff" d="M70,139c-38.047,0-69-30.953-69-69C1,31.953,31.953,1,70,1s69,30.953,69,69
		C139,108.047,108.047,139,70,139 M70,3C33.056,3,3,33.056,3,70s30.056,67,67,67c36.944,0,67-30.057,67-67S106.944,3,70,3"/>
	<path clip-path="url(#SVGID_2_)" fill="#ffffff" d="M70,140c-38.598,0-70-31.402-70-70C0,31.402,31.402,0,70,0
		c38.598,0,70,31.402,70,70C140,108.598,108.598,140,70,140 M2,70c0,37.495,30.505,68,68,68s68-30.505,68-68
		c0,37.495-30.505,68-68,68S2,107.495,2,70 M70,4C33.607,4,4,33.607,4,70c0,36.393,29.607,66,66,66c36.393,0,66-29.607,66-66
		C136,33.607,106.393,4,70,4"/>
	<path clip-path="url(#SVGID_2_)" fill="#ffffff" d="M100.66,93.037c0.056-0.301,0.071-0.613,0.093-0.926
		c0.009-0.155,0.047-0.302,0.047-0.459c0-0.013-0.004-0.024-0.004-0.036c0-0.014,0.004-0.027,0.004-0.042
		c0-3.784-2.625-6.955-6.146-7.808V70.498c0-1.093-0.897-1.99-1.991-1.99H71.994V56.105c3.478-0.897,6.059-4.046,6.059-7.786
		c0-4.44-3.608-8.049-8.049-8.049c-4.44,0-8.049,3.609-8.049,8.049c0,3.762,2.581,6.911,6.058,7.786v12.403H47.344
		c-1.094,0-1.99,0.897-1.99,1.99v13.313c-0.301,0.073-0.586,0.185-0.872,0.291c-0.127,0.047-0.262,0.075-0.386,0.128
		c-0.444,0.189-0.864,0.422-1.263,0.685c-0.117,0.078-0.22,0.172-0.333,0.256c-0.28,0.206-0.551,0.422-0.801,0.661
		c-0.121,0.115-0.228,0.239-0.341,0.362c-0.219,0.237-0.425,0.482-0.615,0.744c-0.101,0.141-0.197,0.283-0.289,0.43
		c-0.171,0.272-0.322,0.556-0.46,0.848c-0.074,0.156-0.15,0.31-0.214,0.472c-0.123,0.311-0.216,0.635-0.299,0.964
		c-0.042,0.161-0.096,0.316-0.127,0.481c-0.075,0.398-0.111,0.811-0.124,1.229c-0.004,0.099-0.03,0.192-0.03,0.292
		c0,0.236,0.05,0.458,0.07,0.69c0.022,0.241,0.03,0.486,0.073,0.722c0.059,0.334,0.156,0.65,0.255,0.969
		c0.04,0.124,0.071,0.251,0.116,0.373c0.131,0.358,0.29,0.697,0.468,1.029c0.028,0.051,0.055,0.103,0.084,0.154
		c1.384,2.46,3.989,4.141,7.012,4.141c4.462,0,8.078-3.617,8.078-8.078c0-3.755-2.573-6.882-6.043-7.788V72.512h18.7v11.32
		c-3.477,0.896-6.058,4.046-6.058,7.786c0,4.44,3.609,8.049,8.049,8.049c4.44,0,8.049-3.608,8.049-8.049
		c0-3.762-2.581-6.912-6.059-7.786V72.468h18.701v11.364c-0.22,0.059-0.423,0.15-0.634,0.227c-0.204,0.072-0.412,0.13-0.608,0.218
		c-0.012,0.005-0.021,0.012-0.032,0.017c-1.185,0.533-2.199,1.354-2.998,2.357c-0.006,0.008-0.012,0.015-0.018,0.022
		c-1.086,1.376-1.762,3.091-1.762,4.979c0,4.461,3.616,8.078,8.078,8.078c3.522,0,6.486-2.27,7.592-5.413
		c0.022-0.062,0.037-0.127,0.059-0.19C100.488,93.771,100.595,93.413,100.66,93.037"/>
</g>
</svg>
