<?xml version="1.0" encoding="utf-8"?>
<!-- Generator: Adobe Illustrator 16.0.0, SVG Export Plug-In . SVG Version: 6.00 Build 0)  -->
<!DOCTYPE svg PUBLIC "-//W3C//DTD SVG 1.1//EN" "http://www.w3.org/Graphics/SVG/1.1/DTD/svg11.dtd">
<svg version="1.1" id="Layer_1" xmlns="http://www.w3.org/2000/svg" xmlns:xlink="http://www.w3.org/1999/xlink" x="0px" y="0px"
	 width="140px" height="140px" viewBox="0 0 140 140" enable-background="new 0 0 140 140" xml:space="preserve">
<g>
	<defs>
		<rect id="SVGID_1_" width="140" height="140"/>
	</defs>
	<clipPath id="SVGID_2_">
		<use xlink:href="#SVGID_1_"  overflow="visible"/>
	</clipPath>
	<path clip-path="url(#SVGID_2_)" fill="#ffffff" d="M70,139c-38.047,0-69-30.953-69-69C1,31.953,31.953,1,70,1s69,30.953,69,69
		C139,108.047,108.047,139,70,139 M70,3C33.056,3,3,33.056,3,70s30.056,67,67,67c36.944,0,67-30.057,67-67S106.944,3,70,3"/>
	<path clip-path="url(#SVGID_2_)" fill="#ffffff" d="M70,140c-38.598,0-70-31.402-70-70C0,31.402,31.402,0,70,0
		c38.598,0,70,31.402,70,70C140,108.598,108.598,140,70,140 M2,70c0,37.495,30.505,68,68,68s68-30.505,68-68
		c0,37.495-30.505,68-68,68S2,107.495,2,70 M70,4C33.607,4,4,33.607,4,70c0,36.393,29.607,66,66,66c36.393,0,66-29.607,66-66
		C136,33.607,106.393,4,70,4"/>
	<path clip-path="url(#SVGID_2_)" fill="#ffffff" d="M60.593,58.01l-4.533-4.284c0.528-0.96,0.854-2.046,0.854-3.218
		c0-3.713-3.008-6.721-6.723-6.721c-3.715,0-6.727,3.006-6.727,6.721c0,3.716,3.012,6.725,6.727,6.725
		c1.31,0,2.522-0.39,3.555-1.037l4.527,4.28C58.958,59.57,59.729,58.741,60.593,58.01"/>
	<path clip-path="url(#SVGID_2_)" fill="#ffffff" d="M79.768,57.474l6.023-10.137c0.594,0.17,1.208,0.292,1.854,0.292
		c3.722,0,6.729-3.01,6.729-6.725c0-3.713-3.008-6.721-6.729-6.721c-3.715,0-6.722,3.006-6.722,6.721
		c0,1.844,0.744,3.511,1.945,4.727l-6.004,10.108C77.896,56.207,78.87,56.791,79.768,57.474"/>
	<path clip-path="url(#SVGID_2_)" fill="#ffffff" d="M100.542,65.96c-2.892,0-5.342,1.838-6.292,4.4l-8.369-0.827
		c0,0.063,0.01,0.124,0.01,0.185c0,1.091-0.121,2.157-0.338,3.187l8.366,0.825c0.506,3.209,3.27,5.671,6.623,5.671
		c3.713,0,6.72-3.007,6.72-6.721C107.262,68.969,104.255,65.96,100.542,65.96"/>
	<path clip-path="url(#SVGID_2_)" fill="#ffffff" d="M77.447,92.396l-1.871-8.176c-1.056,0.367-2.154,0.632-3.301,0.763l1.874,8.177
		c-2.148,1.124-3.631,3.346-3.631,5.939c0,3.714,3.006,6.719,6.729,6.719c3.713,0,6.719-3.006,6.719-6.719
		C83.971,95.454,81.065,92.503,77.447,92.396"/>
	<path clip-path="url(#SVGID_2_)" fill="#ffffff" d="M55.503,72.965l-10.417,3.49c-1.202-1.836-3.272-3.054-5.626-3.054
		c-3.715,0-6.722,3.008-6.722,6.721c0,3.719,3.007,6.727,6.722,6.727c3.712,0,6.726-3.008,6.726-6.727
		c0-0.155-0.033-0.298-0.046-0.45l10.451-3.499C56.12,75.156,55.746,74.086,55.503,72.965"/>
	<path clip-path="url(#SVGID_2_)" fill="#ffffff" d="M70.523,58.19c6.367,0,11.529,5.162,11.529,11.529s-5.162,11.529-11.529,11.529
		s-11.529-5.162-11.529-11.529S64.156,58.19,70.523,58.19"/>
</g>
</svg>
