<?xml version="1.0" encoding="utf-8"?>
<!-- Generator: Adobe Illustrator 16.0.0, SVG Export Plug-In . SVG Version: 6.00 Build 0)  -->
<!DOCTYPE svg PUBLIC "-//W3C//DTD SVG 1.1//EN" "http://www.w3.org/Graphics/SVG/1.1/DTD/svg11.dtd">
<svg version="1.1" id="Layer_1" xmlns="http://www.w3.org/2000/svg" xmlns:xlink="http://www.w3.org/1999/xlink" x="0px" y="0px"
	 width="140px" height="140px" viewBox="0 0 140 140" enable-background="new 0 0 140 140" xml:space="preserve">
<g>
	<defs>
		<rect id="SVGID_1_" width="140" height="140"/>
	</defs>
	<clipPath id="SVGID_2_">
		<use xlink:href="#SVGID_1_"  overflow="visible"/>
	</clipPath>
	<path clip-path="url(#SVGID_2_)" fill="#ffffff" d="M70,139c-38.047,0-69-30.953-69-69C1,31.953,31.953,1,70,1s69,30.953,69,69
		C139,108.047,108.047,139,70,139 M70,3C33.056,3,3,33.056,3,70s30.056,67,67,67c36.944,0,67-30.057,67-67S106.944,3,70,3"/>
	<path clip-path="url(#SVGID_2_)" fill="#ffffff" d="M70,140c-38.598,0-70-31.402-70-70C0,31.402,31.402,0,70,0
		c38.598,0,70,31.402,70,70C140,108.598,108.598,140,70,140 M2,70c0,37.495,30.505,68,68,68s68-30.505,68-68
		c0,37.495-30.505,68-68,68S2,107.495,2,70 M70,4C33.607,4,4,33.607,4,70c0,36.393,29.607,66,66,66c36.393,0,66-29.607,66-66
		C136,33.607,106.393,4,70,4"/>
	<path clip-path="url(#SVGID_2_)" fill="#ffffff" d="M46.827,45.604L46.827,45.604c-0.611,0-1.223,0.245-1.712,0.734
		c-0.489,0.489-0.734,1.1-0.734,1.712v35.952c0,1.345,1.101,2.445,2.446,2.445c5.625,0,14.919,1.223,21.4,7.949V56.854
		c0-0.489-0.122-0.856-0.367-1.223C62.602,46.949,52.452,45.726,46.827,45.604"/>
	<path clip-path="url(#SVGID_2_)" fill="#ffffff" d="M95.619,84.002V48.05c0-0.611-0.245-1.223-0.734-1.712
		c-0.489-0.489-1.1-0.734-1.712-0.734c-5.625,0-15.775,1.345-21.033,9.783c-0.244,0.367-0.367,0.734-0.367,1.223v37.542
		c6.481-6.726,15.775-7.948,21.4-7.948C94.641,86.324,95.619,85.225,95.619,84.002"/>
</g>
</svg>
