<?xml version="1.0" encoding="utf-8"?>
<!-- Generator: Adobe Illustrator 16.0.0, SVG Export Plug-In . SVG Version: 6.00 Build 0)  -->
<!DOCTYPE svg PUBLIC "-//W3C//DTD SVG 1.1//EN" "http://www.w3.org/Graphics/SVG/1.1/DTD/svg11.dtd">
<svg version="1.1" id="Layer_1" xmlns="http://www.w3.org/2000/svg" xmlns:xlink="http://www.w3.org/1999/xlink" x="0px" y="0px"
	 width="140px" height="140px" viewBox="0 0 140 140" enable-background="new 0 0 140 140" xml:space="preserve">
<g>
	<defs>
		<rect id="SVGID_1_" width="140" height="140"/>
	</defs>
	<clipPath id="SVGID_2_">
		<use xlink:href="#SVGID_1_"  overflow="visible"/>
	</clipPath>
	<path clip-path="url(#SVGID_2_)" fill="#ffffff" d="M94.73,76.979c0,5.403-4.348,9.783-9.71,9.783H54.978
		c-5.362,0-9.709-4.38-9.709-9.783c0-4.88,3.545-8.921,8.183-9.662c-0.059-0.342-0.091-0.694-0.091-1.057
		c0-3.423,2.754-6.198,6.153-6.198c1.515,0,2.904,0.552,3.976,1.471c1.91-4.337,4.359-8.295,11.229-8.295
		c8.333,0,12.282,6.474,12.282,13.307c0,0.285-0.012,0.568-0.032,0.849C91.397,68.303,94.73,72.249,94.73,76.979"/>
	<path clip-path="url(#SVGID_2_)" fill="#ffffff" d="M70,139c-38.047,0-69-30.953-69-69C1,31.953,31.953,1,70,1s69,30.953,69,69
		C139,108.047,108.047,139,70,139 M70,3C33.056,3,3,33.056,3,70s30.056,67,67,67c36.944,0,67-30.057,67-67S106.944,3,70,3"/>
	<path clip-path="url(#SVGID_2_)" fill="#ffffff" d="M70,140c-38.598,0-70-31.402-70-70C0,31.402,31.402,0,70,0
		c38.598,0,70,31.402,70,70C140,108.598,108.598,140,70,140 M2,70c0,37.495,30.505,68,68,68s68-30.505,68-68
		c0,37.495-30.505,68-68,68S2,107.495,2,70 M70,4C33.607,4,4,33.607,4,70c0,36.393,29.607,66,66,66c36.393,0,66-29.607,66-66
		C136,33.607,106.393,4,70,4"/>
</g>
</svg>
