<?xml version="1.0" encoding="utf-8"?>
<!-- Generator: Adobe Illustrator 16.0.0, SVG Export Plug-In . SVG Version: 6.00 Build 0)  -->
<!DOCTYPE svg PUBLIC "-//W3C//DTD SVG 1.1//EN" "http://www.w3.org/Graphics/SVG/1.1/DTD/svg11.dtd">
<svg version="1.1" id="Layer_1" xmlns="http://www.w3.org/2000/svg" xmlns:xlink="http://www.w3.org/1999/xlink" x="0px" y="0px"
	 width="108.382px" height="108.395px" viewBox="0 0 108.382 108.395" enable-background="new 0 0 108.382 108.395"
	 xml:space="preserve">
<g>
	<defs>
		<rect id="SVGID_1_" width="108.382" height="108.395"/>
	</defs>
	<clipPath id="SVGID_2_">
		<use xlink:href="#SVGID_1_"  overflow="visible"/>
	</clipPath>
	<path clip-path="url(#SVGID_2_)" fill="#0038A4" d="M63.223,30.721H34.321c-0.998,0-1.806,0.809-1.806,1.806
		c0,0.998,0.808,1.807,1.806,1.807h28.902c0.998,0,1.807-0.809,1.807-1.807C65.029,31.53,64.221,30.721,63.223,30.721"/>
	<path clip-path="url(#SVGID_2_)" fill="#0038A4" d="M74.062,30.721h-3.613c-0.997,0-1.806,0.809-1.806,1.806
		c0,0.998,0.809,1.807,1.806,1.807h3.613c0.998,0,1.806-0.809,1.806-1.807C75.867,31.53,75.06,30.721,74.062,30.721"/>
	<path clip-path="url(#SVGID_2_)" fill="#0038A4" d="M63.223,52.397H34.321c-0.998,0-1.806,0.809-1.806,1.806
		c0,0.998,0.808,1.807,1.806,1.807h28.902c0.998,0,1.807-0.809,1.807-1.807C65.029,53.207,64.221,52.397,63.223,52.397"/>
	<path clip-path="url(#SVGID_2_)" fill="#0038A4" d="M74.062,52.397h-3.613c-0.997,0-1.806,0.809-1.806,1.806
		c0,0.998,0.809,1.807,1.806,1.807h3.613c0.998,0,1.806-0.809,1.806-1.807C75.867,53.207,75.06,52.397,74.062,52.397"/>
	<path clip-path="url(#SVGID_2_)" fill="#0038A4" d="M63.223,74.074H34.321c-0.998,0-1.806,0.81-1.806,1.806
		c0,0.998,0.808,1.808,1.806,1.808h28.902c0.998,0,1.807-0.81,1.807-1.808C65.029,74.883,64.221,74.074,63.223,74.074"/>
	<path clip-path="url(#SVGID_2_)" fill="#0038A4" d="M74.062,74.074h-3.613c-0.997,0-1.806,0.81-1.806,1.806
		c0,0.998,0.809,1.808,1.806,1.808h3.613c0.998,0,1.806-0.81,1.806-1.808C75.867,74.883,75.06,74.074,74.062,74.074"/>
	<path clip-path="url(#SVGID_2_)" fill="#0038A4" d="M18.063,56.01c0.998,0,1.806-0.81,1.806-1.806c0-0.998-0.808-1.807-1.806-1.807
		c-4.988,0-9.032-4.044-9.032-9.032c0-4.988,4.044-9.031,9.032-9.031h0.233c0.99,0.12,1.891-0.585,2.011-1.575
		c0.027-0.22,0.013-0.442-0.04-0.656c-0.262-1.043-0.396-2.114-0.398-3.189c0.009-6.979,5.665-12.635,12.645-12.644
		c1.415-0.002,2.82,0.238,4.155,0.71c0.843,0.298,1.778-0.066,2.198-0.856C44.937,4.662,59.147,0.29,70.609,6.359
		c6.147,3.255,10.535,9.068,11.981,15.872c0.19,0.931,1.075,1.551,2.016,1.414c0.695-0.098,1.397-0.149,2.1-0.15
		c7.98-0.002,14.453,6.466,14.455,14.447c0.002,6.745-4.663,12.595-11.24,14.094c-0.974,0.219-1.584,1.186-1.364,2.16
		c0.219,0.973,1.187,1.583,2.159,1.364c9.728-2.212,15.821-11.892,13.607-21.62c-1.869-8.224-9.183-14.059-17.617-14.057
		c-0.325,0-0.644,0.009-0.963,0.025C81.77,5.481,66.854-2.994,52.426,0.979c-6.703,1.846-12.44,6.198-16.024,12.155
		c-1.271-0.317-2.577-0.477-3.887-0.477c-8.975,0.01-16.247,7.283-16.257,16.257c0,0.641,0.037,1.282,0.112,1.919
		C9.448,31.76,4.589,38.123,5.516,45.045C6.358,51.329,11.724,56.018,18.063,56.01"/>
	<path clip-path="url(#SVGID_2_)" fill="#0038A4" d="M106.576,99.363H61.16c-0.658-2.528-2.633-4.505-5.163-5.162v-9.288H79.48
		c0.998,0,1.807-0.81,1.807-1.807V68.655c0-0.998-0.809-1.807-1.807-1.807h-5.419v-3.613h5.419c0.998,0,1.807-0.808,1.807-1.806
		V46.978c0-0.997-0.809-1.806-1.807-1.806h-5.419v-3.613h5.419c0.998,0,1.807-0.809,1.807-1.806V25.302
		c0-0.998-0.809-1.807-1.807-1.807H28.902c-0.998,0-1.807,0.809-1.807,1.807v14.451c0,0.997,0.809,1.806,1.807,1.806h5.419v3.613
		h-5.419c-0.998,0-1.807,0.809-1.807,1.806v14.451c0,0.998,0.809,1.806,1.807,1.806h5.419v3.613h-5.419
		c-0.998,0-1.807,0.809-1.807,1.807v14.451c0,0.997,0.809,1.807,1.807,1.807h23.483v9.288c-2.53,0.657-4.505,2.633-5.163,5.162
		H1.806c-0.997,0-1.806,0.81-1.806,1.807c0,0.998,0.809,1.807,1.806,1.807h45.416c0.98,3.85,4.894,6.174,8.743,5.195
		c2.553-0.65,4.545-2.644,5.195-5.195h45.416c0.997,0,1.806-0.809,1.806-1.807C108.382,100.172,107.573,99.363,106.576,99.363
		 M30.708,27.108h46.966v10.838H30.708V27.108z M70.448,45.172H37.933v-3.613h32.515V45.172z M30.708,48.784h46.966v10.838H30.708
		V48.784z M70.448,66.848H37.933v-3.613h32.515V66.848z M30.708,70.461h46.966v10.838H30.708V70.461z M54.191,104.782
		c-1.995,0-3.613-1.616-3.613-3.612c0-1.995,1.618-3.612,3.613-3.612s3.612,1.617,3.612,3.612
		C57.804,103.166,56.187,104.782,54.191,104.782"/>
</g>
</svg>
