<?xml version="1.0" encoding="utf-8"?>
<!-- Generator: Adobe Illustrator 16.0.0, SVG Export Plug-In . SVG Version: 6.00 Build 0)  -->
<!DOCTYPE svg PUBLIC "-//W3C//DTD SVG 1.1//EN" "http://www.w3.org/Graphics/SVG/1.1/DTD/svg11.dtd">
<svg version="1.1" id="Layer_1" xmlns="http://www.w3.org/2000/svg" xmlns:xlink="http://www.w3.org/1999/xlink" x="0px" y="0px"
	 width="64.007px" height="66.795px" viewBox="0 0 64.007 66.795" enable-background="new 0 0 64.007 66.795" xml:space="preserve">
<g>
	<defs>
		<rect id="SVGID_1_" width="64.007" height="66.795"/>
	</defs>
	<clipPath id="SVGID_2_">
		<use xlink:href="#SVGID_1_"  overflow="visible"/>
	</clipPath>
	<path clip-path="url(#SVGID_2_)" fill="#0038A4" d="M26.434,66.795H1.392C0.623,66.795,0,66.173,0,65.404
		c0-0.186,0.037-0.369,0.109-0.54l11.13-26.435c0.299-0.708,1.115-1.04,1.824-0.741c0.708,0.3,1.04,1.115,0.741,1.824l-10.317,24.5
		h21.019l-4.959-14.864c-0.242-0.729,0.152-1.518,0.881-1.76c0.729-0.243,1.517,0.151,1.76,0.88l5.565,16.695
		c0.243,0.729-0.151,1.517-0.88,1.76C26.731,66.771,26.583,66.795,26.434,66.795"/>
	<path clip-path="url(#SVGID_2_)" fill="#0038A4" d="M26.434,66.795c-0.177,0-0.353-0.034-0.518-0.1L5.048,58.347
		c-0.713-0.286-1.059-1.096-0.773-1.809c0.152-0.378,0.462-0.671,0.848-0.801l16.695-5.565c0.729-0.242,1.517,0.152,1.76,0.881
		c0.243,0.729-0.152,1.518-0.881,1.76L9.608,57.176l17.341,6.938c0.713,0.285,1.059,1.096,0.772,1.809
		C27.51,66.448,27.001,66.794,26.434,66.795"/>
	<path clip-path="url(#SVGID_2_)" fill="#0038A4" d="M27.825,37.579c-0.768,0.001-1.392-0.62-1.394-1.39
		c0-0.369,0.147-0.726,0.409-0.986L56.056,5.987c0.534-0.553,1.414-0.568,1.968-0.034c0.553,0.533,0.567,1.414,0.033,1.967
		c-0.011,0.011-0.021,0.023-0.033,0.034L28.807,37.17C28.547,37.431,28.194,37.578,27.825,37.579"/>
	<path clip-path="url(#SVGID_2_)" fill="#0038A4" d="M49.604,55.665c-2.32-0.024-4.628-0.355-6.861-0.985
		c-7.866-2.415-14.985-6.798-20.686-12.731c-5.932-5.698-10.314-12.814-12.73-20.677c-1.989-7.315-0.948-13.465,2.916-17.36
		c3.865-3.895,10.04-4.908,17.36-2.916c7.866,2.415,14.986,6.798,20.685,12.733c5.935,5.699,10.316,12.819,12.732,20.684
		c1.989,7.314,0.949,13.476-2.928,17.349C57.269,54.427,53.483,55.836,49.604,55.665 M22.75,2.798
		c-3.144-0.161-6.219,0.952-8.531,3.089c-3.139,3.138-3.923,8.347-2.209,14.652c2.287,7.398,6.422,14.091,12.014,19.447
		C29.38,45.578,36.073,49.713,43.471,52c6.313,1.709,11.514,0.93,14.652-2.209s3.924-8.347,2.21-14.652
		c-2.287-7.397-6.422-14.091-12.016-19.447C42.962,10.1,36.269,5.964,28.872,3.677C26.878,3.117,24.82,2.821,22.75,2.798"/>
	<path clip-path="url(#SVGID_2_)" fill="#0038A4" d="M40.903,57.056c-8.986-0.03-17.585-3.657-23.877-10.072
		C8.042,38.202,4.729,25.13,8.448,13.129c0.222-0.735,0.998-1.151,1.734-0.929c0.612,0.185,1.02,0.764,0.987,1.402
		c-0.381,7.961,4.547,18.087,12.858,26.383c8.311,8.298,18.501,13.239,26.386,12.858c0.706-0.088,1.35,0.413,1.438,1.119
		c0.001,0.011,0.002,0.021,0.003,0.033c0.118,0.69-0.297,1.362-0.969,1.565C47.65,56.55,44.286,57.053,40.903,57.056 M9.739,22.64
		c-0.095,8.408,3.247,16.49,9.252,22.377c5.868,6.035,13.965,9.384,22.382,9.257c-7.312-2.54-13.927-6.759-19.313-12.317
		C16.5,36.568,12.28,29.953,9.739,22.64"/>
	<path clip-path="url(#SVGID_2_)" fill="#0038A4" d="M27.825,37.579c-0.768,0.001-1.392-0.62-1.394-1.39
		c0-0.369,0.147-0.726,0.409-0.986L56.056,5.987c0.534-0.553,1.414-0.568,1.968-0.034c0.553,0.533,0.567,1.414,0.033,1.967
		c-0.011,0.011-0.021,0.023-0.033,0.034L28.807,37.17C28.547,37.431,28.194,37.578,27.825,37.579"/>
	<path clip-path="url(#SVGID_2_)" fill="#0038A4" d="M59.823,0.016c-2.305,0-4.174,1.869-4.174,4.174
		c0,2.305,1.869,4.173,4.174,4.173c2.306,0,4.175-1.868,4.175-4.173C63.998,1.885,62.129,0.016,59.823,0.016 M59.823,5.581
		c-0.768,0-1.391-0.623-1.391-1.391c0-0.769,0.623-1.392,1.391-1.392c0.769,0,1.392,0.623,1.392,1.392
		C61.215,4.958,60.592,5.581,59.823,5.581"/>
	<path clip-path="url(#SVGID_2_)" fill="#0038A4" d="M26.434,66.795H1.392C0.623,66.795,0,66.173,0,65.404
		c0-0.186,0.037-0.369,0.109-0.54l11.13-26.435c0.299-0.708,1.115-1.04,1.824-0.741c0.708,0.3,1.04,1.115,0.741,1.824l-10.317,24.5
		h21.019l-4.959-14.864c-0.242-0.729,0.152-1.518,0.881-1.76c0.729-0.243,1.517,0.151,1.76,0.88l5.565,16.695
		c0.243,0.729-0.151,1.517-0.88,1.76C26.731,66.771,26.583,66.795,26.434,66.795"/>
	<path clip-path="url(#SVGID_2_)" fill="#0038A4" d="M26.434,66.795c-0.177,0-0.353-0.034-0.518-0.1L5.048,58.347
		c-0.713-0.286-1.059-1.096-0.773-1.809c0.152-0.378,0.462-0.671,0.848-0.801l16.695-5.565c0.729-0.242,1.517,0.152,1.76,0.881
		c0.243,0.729-0.152,1.518-0.881,1.76L9.608,57.176l17.341,6.938c0.713,0.285,1.059,1.096,0.772,1.809
		C27.51,66.448,27.001,66.794,26.434,66.795"/>
</g>
</svg>
