<?xml version="1.0" encoding="utf-8"?>
<!-- Generator: Adobe Illustrator 16.0.0, SVG Export Plug-In . SVG Version: 6.00 Build 0)  -->
<!DOCTYPE svg PUBLIC "-//W3C//DTD SVG 1.1//EN" "http://www.w3.org/Graphics/SVG/1.1/DTD/svg11.dtd">
<svg version="1.1" id="Layer_1" xmlns="http://www.w3.org/2000/svg" xmlns:xlink="http://www.w3.org/1999/xlink" x="0px" y="0px"
	 width="61.816px" height="66.662px" viewBox="0 0 61.816 66.662" enable-background="new 0 0 61.816 66.662" xml:space="preserve">
<g>
	<defs>
		<rect id="SVGID_1_" width="61.817" height="66.662"/>
	</defs>
	<clipPath id="SVGID_2_">
		<use xlink:href="#SVGID_1_"  overflow="visible"/>
	</clipPath>
	<path clip-path="url(#SVGID_2_)" fill="#0038A4" d="M60.47,16.509H39.837V1.347C39.837,0.599,39.238,0,38.489,0H1.347
		C0.599,0,0,0.599,0,1.347v63.968c0,0.748,0.599,1.347,1.347,1.347h37.142h21.98c0.748,0,1.348-0.599,1.348-1.347V17.856
		C61.817,17.108,61.218,16.509,60.47,16.509 M37.142,17.856v46.125H2.695V2.695h34.447V17.856z M59.122,63.967H39.837V19.19h19.285
		V63.967z"/>
	<path clip-path="url(#SVGID_2_)" fill="#0038A4" d="M45.09,26.036h8.778c0.749,0,1.348-0.599,1.348-1.347
		c0-0.749-0.599-1.348-1.348-1.348H45.09c-0.749,0-1.347,0.599-1.347,1.348C43.743,25.424,44.341,26.036,45.09,26.036"/>
	<path clip-path="url(#SVGID_2_)" fill="#0038A4" d="M45.09,32.8h8.778c0.749,0,1.348-0.599,1.348-1.347
		c0-0.749-0.599-1.348-1.348-1.348H45.09c-0.749,0-1.347,0.599-1.347,1.348C43.743,32.201,44.341,32.8,45.09,32.8"/>
	<path clip-path="url(#SVGID_2_)" fill="#0038A4" d="M45.09,39.551h8.778c0.749,0,1.348-0.599,1.348-1.347
		c0-0.749-0.599-1.349-1.348-1.349H45.09c-0.749,0-1.347,0.6-1.347,1.349C43.743,38.952,44.341,39.551,45.09,39.551"/>
	<path clip-path="url(#SVGID_2_)" fill="#0038A4" d="M45.09,46.315h8.778c0.749,0,1.348-0.6,1.348-1.348
		c0-0.749-0.599-1.348-1.348-1.348H45.09c-0.749,0-1.347,0.599-1.347,1.348C43.743,45.716,44.341,46.315,45.09,46.315"/>
	<path clip-path="url(#SVGID_2_)" fill="#0038A4" d="M45.09,53.065h8.778c0.749,0,1.348-0.599,1.348-1.347
		c0-0.749-0.599-1.348-1.348-1.348H45.09c-0.749,0-1.347,0.599-1.347,1.348C43.743,52.453,44.341,53.065,45.09,53.065"/>
	<path clip-path="url(#SVGID_2_)" fill="#0038A4" d="M45.09,59.83h8.778c0.749,0,1.348-0.6,1.348-1.348s-0.599-1.348-1.348-1.348
		H45.09c-0.749,0-1.347,0.6-1.347,1.348S44.341,59.83,45.09,59.83"/>
	<path clip-path="url(#SVGID_2_)" fill="#0038A4" d="M8.942,13.202c0.749,0,1.347-0.599,1.347-1.347V8.874
		c0-0.749-0.598-1.347-1.347-1.347S7.595,8.125,7.595,8.874v2.981C7.595,12.603,8.193,13.202,8.942,13.202"/>
	<path clip-path="url(#SVGID_2_)" fill="#0038A4" d="M16.264,13.202c0.749,0,1.347-0.599,1.347-1.347V8.874
		c0-0.749-0.598-1.347-1.347-1.347s-1.347,0.598-1.347,1.347v2.981C14.917,12.603,15.515,13.202,16.264,13.202"/>
	<path clip-path="url(#SVGID_2_)" fill="#0038A4" d="M23.573,13.202c0.749,0,1.347-0.599,1.347-1.347V8.874
		c0-0.749-0.598-1.347-1.347-1.347s-1.347,0.598-1.347,1.347v2.981C22.226,12.603,22.837,13.202,23.573,13.202"/>
	<path clip-path="url(#SVGID_2_)" fill="#0038A4" d="M30.895,13.202c0.749,0,1.348-0.599,1.348-1.347V8.874
		c0-0.749-0.599-1.347-1.348-1.347s-1.347,0.598-1.347,1.347v2.981C29.548,12.603,30.146,13.202,30.895,13.202"/>
	<path clip-path="url(#SVGID_2_)" fill="#0038A4" d="M8.942,22.429c0.749,0,1.347-0.599,1.347-1.347v-2.995
		c0-0.748-0.598-1.347-1.347-1.347s-1.347,0.599-1.347,1.347v2.995C7.595,21.817,8.193,22.429,8.942,22.429"/>
	<path clip-path="url(#SVGID_2_)" fill="#0038A4" d="M16.264,22.429c0.749,0,1.347-0.599,1.347-1.347v-2.995
		c0-0.748-0.598-1.347-1.347-1.347s-1.347,0.599-1.347,1.347v2.995C14.917,21.817,15.515,22.429,16.264,22.429"/>
	<path clip-path="url(#SVGID_2_)" fill="#0038A4" d="M23.573,22.429c0.749,0,1.347-0.599,1.347-1.347v-2.995
		c0-0.748-0.598-1.347-1.347-1.347s-1.347,0.599-1.347,1.347v2.995C22.226,21.817,22.837,22.429,23.573,22.429"/>
	<path clip-path="url(#SVGID_2_)" fill="#0038A4" d="M30.895,22.429c0.749,0,1.348-0.599,1.348-1.347v-2.995
		c0-0.748-0.599-1.347-1.348-1.347s-1.347,0.599-1.347,1.347v2.995C29.548,21.817,30.146,22.429,30.895,22.429"/>
	<path clip-path="url(#SVGID_2_)" fill="#0038A4" d="M8.942,31.644c0.749,0,1.347-0.599,1.347-1.347v-2.981
		c0-0.749-0.598-1.347-1.347-1.347s-1.347,0.598-1.347,1.347v2.981C7.595,31.044,8.193,31.644,8.942,31.644"/>
	<path clip-path="url(#SVGID_2_)" fill="#0038A4" d="M16.264,31.644c0.749,0,1.347-0.599,1.347-1.347v-2.981
		c0-0.749-0.598-1.347-1.347-1.347s-1.347,0.598-1.347,1.347v2.981C14.917,31.044,15.515,31.644,16.264,31.644"/>
	<path clip-path="url(#SVGID_2_)" fill="#0038A4" d="M23.573,31.644c0.749,0,1.347-0.599,1.347-1.347v-2.981
		c0-0.749-0.598-1.347-1.347-1.347s-1.347,0.598-1.347,1.347v2.981C22.226,31.044,22.837,31.644,23.573,31.644"/>
	<path clip-path="url(#SVGID_2_)" fill="#0038A4" d="M30.895,31.644c0.749,0,1.348-0.599,1.348-1.347v-2.981
		c0-0.749-0.599-1.347-1.348-1.347s-1.347,0.598-1.347,1.347v2.981C29.548,31.044,30.146,31.644,30.895,31.644"/>
	<path clip-path="url(#SVGID_2_)" fill="#0038A4" d="M8.942,40.871c0.749,0,1.347-0.599,1.347-1.347v-2.981
		c0-0.749-0.598-1.347-1.347-1.347s-1.347,0.598-1.347,1.347v2.981C7.595,40.259,8.193,40.871,8.942,40.871"/>
	<path clip-path="url(#SVGID_2_)" fill="#0038A4" d="M16.264,40.871c0.749,0,1.347-0.599,1.347-1.347v-2.981
		c0-0.749-0.598-1.347-1.347-1.347s-1.347,0.598-1.347,1.347v2.981C14.917,40.259,15.515,40.871,16.264,40.871"/>
	<path clip-path="url(#SVGID_2_)" fill="#0038A4" d="M23.573,40.871c0.749,0,1.347-0.599,1.347-1.347v-2.981
		c0-0.749-0.598-1.347-1.347-1.347s-1.347,0.598-1.347,1.347v2.981C22.226,40.259,22.837,40.871,23.573,40.871"/>
	<path clip-path="url(#SVGID_2_)" fill="#0038A4" d="M30.895,40.871c0.749,0,1.348-0.599,1.348-1.347v-2.981
		c0-0.749-0.599-1.347-1.348-1.347s-1.347,0.598-1.347,1.347v2.981C29.548,40.259,30.146,40.871,30.895,40.871"/>
	<path clip-path="url(#SVGID_2_)" fill="#0038A4" d="M8.942,50.085c0.749,0,1.347-0.599,1.347-1.347v-2.981
		c0-0.749-0.598-1.347-1.347-1.347s-1.347,0.598-1.347,1.347v2.981C7.595,49.486,8.193,50.085,8.942,50.085"/>
	<path clip-path="url(#SVGID_2_)" fill="#0038A4" d="M16.264,50.085c0.749,0,1.347-0.599,1.347-1.347v-2.981
		c0-0.749-0.598-1.347-1.347-1.347s-1.347,0.598-1.347,1.347v2.981C14.917,49.486,15.515,50.085,16.264,50.085"/>
	<path clip-path="url(#SVGID_2_)" fill="#0038A4" d="M23.573,50.085c0.749,0,1.347-0.599,1.347-1.347v-2.981
		c0-0.749-0.598-1.347-1.347-1.347s-1.347,0.598-1.347,1.347v2.981C22.226,49.486,22.837,50.085,23.573,50.085"/>
	<path clip-path="url(#SVGID_2_)" fill="#0038A4" d="M30.895,50.085c0.749,0,1.348-0.599,1.348-1.347v-2.981
		c0-0.749-0.599-1.347-1.348-1.347s-1.347,0.598-1.347,1.347v2.981C29.548,49.486,30.146,50.085,30.895,50.085"/>
	<path clip-path="url(#SVGID_2_)" fill="#0038A4" d="M8.942,59.313c0.749,0,1.347-0.599,1.347-1.347v-2.995
		c0-0.748-0.598-1.347-1.347-1.347s-1.347,0.599-1.347,1.347v2.995C7.595,58.701,8.193,59.313,8.942,59.313"/>
	<path clip-path="url(#SVGID_2_)" fill="#0038A4" d="M16.264,59.313c0.749,0,1.347-0.599,1.347-1.347v-2.995
		c0-0.748-0.598-1.347-1.347-1.347s-1.347,0.599-1.347,1.347v2.995C14.917,58.701,15.515,59.313,16.264,59.313"/>
	<path clip-path="url(#SVGID_2_)" fill="#0038A4" d="M23.573,59.313c0.749,0,1.347-0.599,1.347-1.347v-2.995
		c0-0.748-0.598-1.347-1.347-1.347s-1.347,0.599-1.347,1.347v2.995C22.226,58.701,22.837,59.313,23.573,59.313"/>
	<path clip-path="url(#SVGID_2_)" fill="#0038A4" d="M30.895,59.313c0.749,0,1.348-0.599,1.348-1.347v-2.995
		c0-0.748-0.599-1.347-1.348-1.347s-1.347,0.599-1.347,1.347v2.995C29.548,58.701,30.146,59.313,30.895,59.313"/>
</g>
</svg>
